<svg width="53" height="58" viewBox="0 0 53 58" fill="none" xmlns="http://www.w3.org/2000/svg">
<path d="M52.362 14.5643C52.362 14.5398 52.362 14.5398 52.3374 14.5154C51.8927 13.7639 51.2583 13.1411 50.4972 12.7087L28.9046 0.622829C28.1696 0.214415 27.3418 0 26.5 0C25.6581 0 24.8303 0.214415 24.0953 0.622829L2.50278 12.7087C1.73491 13.1431 1.09912 13.7758 0.662501 14.5398H0.637964C0.636415 14.5587 0.627625 14.5762 0.613427 14.5887C0.210368 15.3136 -0.000727755 16.1286 1.88505e-06 16.957V41.031C0.00220982 41.8994 0.234807 42.7518 0.674275 43.5021C1.11374 44.2524 1.7445 44.8739 2.50278 45.3038L24.0953 57.3896C24.7748 57.7586 25.5303 57.9675 26.3037 58H26.7453C27.5012 57.9553 28.2381 57.747 28.9046 57.3896L50.4972 45.3038C51.2554 44.8739 51.8862 44.2524 52.3257 43.5021C52.7651 42.7518 52.9977 41.8994 52.9999 41.031V16.957C53.0042 16.1173 52.784 15.2915 52.362 14.5643ZM26.5 5.99431L44.0685 15.8339L38.5476 18.9347L20.7828 9.19278L26.5 5.99431ZM26.7208 25.6246L8.98055 15.7851L14.7467 12.5622L32.5361 22.3529L26.7208 25.6246ZM5.88888 20.7903L23.7764 30.7031L23.6046 50.3823L5.88888 40.4694V20.7903ZM29.4935 50.3334L29.6652 30.7031L35.5787 27.3581V34.9759C35.5787 35.7529 35.8889 36.4982 36.4411 37.0476C36.9933 37.5971 37.7422 37.9058 38.5231 37.9058C39.304 37.9058 40.0529 37.5971 40.6051 37.0476C41.1573 36.4982 41.4675 35.7529 41.4675 34.9759V24.0376L47.1111 20.8391V40.4694L29.4935 50.3334Z" fill="#002C3E"/>
</svg>
