<svg width="62" height="44" viewBox="0 0 62 44" fill="none" xmlns="http://www.w3.org/2000/svg">
<path d="M51.6667 38.8235C54.5083 38.8235 56.8075 36.4941 56.8075 33.6471L56.8333 5.17647C56.8333 2.32941 54.5083 0 51.6667 0H10.3333C7.49167 0 5.16667 2.32941 5.16667 5.17647V33.6471C5.16667 36.4941 7.49167 38.8235 10.3333 38.8235H0C0 41.6706 2.325 44 5.16667 44H56.8333C59.675 44 62 41.6706 62 38.8235H51.6667ZM10.3333 5.17647H51.6667V33.6471H10.3333V5.17647ZM31 41.4118C29.5792 41.4118 28.4167 40.2471 28.4167 38.8235C28.4167 37.4 29.5792 36.2353 31 36.2353C32.4208 36.2353 33.5833 37.4 33.5833 38.8235C33.5833 40.2471 32.4208 41.4118 31 41.4118Z" fill="#002C3E"/>
</svg>
