<svg width="64" height="64" viewBox="0 0 64 64" fill="none" xmlns="http://www.w3.org/2000/svg">
<path d="M50 3.125C43.975 3.125 39.125 7.98 39.125 14C39.125 20.025 43.975 24.875 50 24.875C56.025 24.875 60.875 20.025 60.875 14C60.875 7.98 56.025 3.125 50 3.125ZM55.0625 7.37625L56.9375 8.62375L48.175 21.7625L41.2 14.8L42.8 13.2L47.825 18.2375L55.0625 7.37625ZM38.0875 19.5125L23.3 29.75H4V34.25H23.3L38.0875 44.4875C38.725 43.1125 39.6 41.8625 40.65 40.8L27.95 32L40.65 23.2C39.6 22.1375 38.725 20.8875 38.0875 19.5125ZM50 39.125C43.975 39.125 39.125 43.975 39.125 50C39.125 56.025 43.975 60.875 50 60.875C56.025 60.875 60.875 56.025 60.875 50C60.875 43.975 56.025 39.125 50 39.125ZM44.8 43.2L50 48.4L55.2 43.2L56.8 44.8L51.6 50L56.8 55.2L55.2 56.8L50 51.6L44.8 56.8L43.2 55.2L48.4 50L43.2 44.8L44.8 43.2Z" fill="#002C3E"/>
</svg>
